<?xml version="1.0" standalone="no"?>
<!DOCTYPE svg PUBLIC "-//W3C//DTD SVG 20010904//EN"
 "http://www.w3.org/TR/2001/REC-SVG-20010904/DTD/svg10.dtd">
<svg version="1.0" xmlns="http://www.w3.org/2000/svg"
 width="500.000000pt" height="500.000000pt" viewBox="0 0 500.000000 500.000000"
 preserveAspectRatio="xMidYMid meet">

<g transform="translate(0.000000,500.000000) scale(0.100000,-0.100000)"
fill="#000000" stroke="none">
<path d="M2215 3008 l-60 -9 -72 -202 c-40 -111 -73 -206 -73 -210 0 -4 23 -7
52 -5 l52 3 23 114 c13 63 25 116 27 118 2 2 19 -50 37 -116 l33 -121 134 0
c77 0 132 4 130 9 -1 5 -37 104 -78 220 l-75 211 -35 -1 c-19 -1 -62 -6 -95
-11z"/>
<path d="M2810 2985 c0 -22 4 -25 35 -25 l35 0 0 -190 0 -190 125 0 125 0 0
190 0 190 40 0 c36 0 40 3 40 25 l0 25 -200 0 -200 0 0 -25z"/>
<path d="M2362 2455 c0 -22 2 -32 5 -22 2 9 13 17 23 17 10 0 21 -8 23 -17 3
-10 5 0 5 22 0 22 -2 32 -5 23 -2 -10 -13 -18 -23 -18 -10 0 -21 8 -23 18 -3
9 -5 -1 -5 -23z"/>
<path d="M2503 2460 c3 -61 58 -51 56 10 -1 22 -2 21 -10 -8 -12 -39 -31 -37
-41 4 -6 27 -6 27 -5 -6z"/>
<path d="M2630 2455 c0 -34 2 -36 28 -33 23 3 27 8 27 33 0 25 -4 30 -27 33
-26 3 -28 1 -28 -33z m40 15 c0 -5 -7 -10 -16 -10 -8 0 -12 5 -9 10 3 6 10 10
16 10 5 0 9 -4 9 -10z m10 -30 c0 -5 -9 -10 -20 -10 -11 0 -20 5 -20 10 0 6 9
10 20 10 11 0 20 -4 20 -10z"/>
<path d="M1900 2286 c-4 -13 -22 -62 -39 -110 -43 -122 -46 -126 -86 -126 -31
0 -35 -3 -35 -25 l0 -25 170 0 170 0 0 25 c0 22 -4 25 -35 25 -41 0 -41 -7
-12 135 l23 110 130 3 129 3 28 -103 c15 -57 30 -113 33 -125 6 -21 3 -23 -30
-23 -32 0 -36 -3 -36 -25 l0 -25 225 0 225 0 0 25 c0 22 -4 25 -34 25 -38 0
-30 -15 -101 183 l-28 77 -344 0 -343 0 -10 -24z"/>
<path d="M2880 2180 l0 -130 -35 0 c-31 0 -35 -3 -35 -25 l0 -25 200 0 200 0
0 25 c0 23 -4 25 -40 25 l-40 0 0 130 0 130 -125 0 -125 0 0 -130z"/>
<path d="M2193 1840 c0 -25 2 -35 4 -22 2 12 2 32 0 45 -2 12 -4 2 -4 -23z"/>
<path d="M2301 1840 l1 -45 8 35 c5 20 5 39 -1 45 -5 5 -9 -8 -8 -35z"/>
<path d="M2350 1854 c0 -22 -2 -25 -15 -14 -23 19 -18 -4 5 -25 20 -18 20 -17
20 23 0 23 -2 42 -5 42 -3 0 -5 -12 -5 -26z"/>
<path d="M2463 1864 c-4 -10 1 -22 10 -29 24 -17 21 -28 -4 -20 -15 5 -19 4
-15 -4 9 -14 43 -14 52 0 4 7 -4 20 -17 30 l-24 19 25 0 c20 0 22 2 10 10 -21
14 -30 12 -37 -6z"/>
<path d="M2717 1873 c-4 -3 -7 -21 -7 -40 0 -28 4 -33 23 -33 45 0 65 50 28
70 -23 12 -35 13 -44 3z m48 -23 c7 -12 -12 -40 -26 -40 -5 0 -9 11 -9 25 0
25 23 35 35 15z"/>
<path d="M2880 1840 c0 -35 3 -40 23 -39 16 1 18 2 5 6 -10 2 -18 8 -18 13 0
5 8 11 18 13 16 4 16 5 0 6 -22 1 -24 21 -3 21 8 0 15 5 15 10 0 6 -9 10 -20
10 -17 0 -20 -7 -20 -40z"/>
<path d="M2600 1835 c0 -19 5 -35 10 -35 6 0 10 16 10 35 0 19 -4 35 -10 35
-5 0 -10 -16 -10 -35z"/>
</g>
</svg>

