<?xml version="1.0" standalone="no"?>
<!DOCTYPE svg PUBLIC "-//W3C//DTD SVG 20010904//EN"
 "http://www.w3.org/TR/2001/REC-SVG-20010904/DTD/svg10.dtd">
<svg version="1.0" xmlns="http://www.w3.org/2000/svg"
 width="309.000000pt" height="300.000000pt" viewBox="0 0 309.000000 300.000000"
 preserveAspectRatio="xMidYMid meet">

<g transform="translate(0.000000,300.000000) scale(0.100000,-0.100000)"
fill="#000000" stroke="none">
<path d="M0 1500 l0 -1500 1545 0 1545 0 0 1500 0 1500 -1545 0 -1545 0 0
-1500z m1437 300 c90 -250 166 -465 169 -477 l6 -23 -225 0 -225 0 -88 315
-89 315 -62 -308 c-34 -169 -62 -310 -63 -314 0 -9 -220 -11 -220 -3 0 7 322
909 326 914 7 7 238 39 273 37 l35 -1 163 -455z m1213 395 l0 -45 -60 0 -60 0
0 -425 0 -425 -200 0 -200 0 0 425 0 425 -60 0 -60 0 0 45 0 45 320 0 320 0 0
-45z m-1200 -940 c0 -18 5 -25 20 -25 15 0 20 7 20 26 0 19 5 25 18 22 13 -2
18 -15 20 -61 3 -52 1 -57 -18 -57 -13 0 -20 7 -20 20 0 13 -7 20 -20 20 -13
0 -20 -7 -20 -20 0 -13 -7 -20 -20 -20 -17 0 -20 7 -20 53 0 30 3 57 7 60 15
16 33 6 33 -18z m198 -15 c4 -55 10 -64 27 -50 9 7 15 29 15 51 0 29 4 39 16
39 12 0 14 -10 12 -52 -3 -45 -7 -55 -29 -67 -24 -13 -29 -13 -53 2 -22 15
-26 25 -26 68 0 43 3 50 18 47 11 -2 18 -14 20 -38z m257 29 c2 -2 5 -27 7
-54 l3 -50 -52 -3 -53 -3 0 62 0 62 45 -6 c26 -2 48 -6 50 -8z m-156 -341 l74
-208 58 0 59 0 0 -45 0 -45 -365 0 -365 0 0 45 0 44 58 3 57 3 -54 193 -54
192 -198 0 c-180 0 -198 -2 -203 -17 -2 -10 -19 -90 -36 -178 -17 -88 -34
-168 -36 -177 -5 -16 2 -18 55 -18 l61 0 0 -45 0 -45 -275 0 -275 0 0 45 0 45
59 0 c38 0 61 4 64 13 2 6 33 91 67 187 34 96 66 185 71 198 l9 22 547 -2 548
-3 74 -207z m781 2 l0 -210 60 0 60 0 0 -45 0 -45 -320 0 -320 0 0 45 0 45 60
0 60 0 0 210 0 210 200 0 200 0 0 -210z m-1360 -405 c0 -68 -2 -75 -20 -75
-18 0 -20 7 -20 75 0 68 2 75 20 75 18 0 20 -7 20 -75z m168 33 l32 -40 0 41
c0 34 3 41 20 41 18 0 20 -7 20 -75 0 -67 -2 -75 -19 -75 -11 0 -33 17 -50 37
l-31 38 0 -38 c0 -30 -4 -37 -20 -37 -18 0 -20 7 -20 75 0 65 2 75 18 74 9 0
32 -18 50 -41z m276 34 c9 -16 -10 -31 -36 -29 -36 3 -32 -16 6 -28 40 -13 48
-55 14 -79 -26 -18 -46 -20 -82 -6 -17 6 -24 14 -20 25 5 11 15 13 45 9 51 -8
51 9 0 24 -74 23 -55 92 24 92 24 0 46 -4 49 -8z m126 -67 c0 -68 -2 -75 -20
-75 -18 0 -20 7 -20 75 0 68 2 75 20 75 18 0 20 -7 20 -75z m228 55 c15 -15
22 -33 22 -60 0 -51 -26 -70 -97 -70 l-53 0 0 75 0 75 53 0 c40 0 59 -5 75
-20z m232 5 c0 -11 -11 -15 -40 -15 -29 0 -40 -4 -40 -15 0 -10 11 -15 35 -15
24 0 35 -5 35 -15 0 -10 -11 -15 -35 -15 -24 0 -35 -5 -35 -15 0 -11 11 -15
40 -15 29 0 40 -4 40 -15 0 -12 -13 -15 -60 -15 l-60 0 0 75 0 75 60 0 c47 0
60 -3 60 -15z"/>
<path d="M1840 1240 c0 -5 9 -10 20 -10 11 0 20 5 20 10 0 6 -9 10 -20 10 -11
0 -20 -4 -20 -10z"/>
<path d="M1840 1190 c0 -5 9 -10 20 -10 11 0 20 5 20 10 0 6 -9 10 -20 10 -11
0 -20 -4 -20 -10z"/>
<path d="M1880 521 c0 -33 4 -41 18 -41 30 0 54 24 50 51 -2 19 -10 25 -35 27
-32 3 -33 2 -33 -37z"/>
</g>
</svg>
