<?xml version="1.0" standalone="no"?>
<!DOCTYPE svg PUBLIC "-//W3C//DTD SVG 20010904//EN"
 "http://www.w3.org/TR/2001/REC-SVG-20010904/DTD/svg10.dtd">
<svg version="1.0" xmlns="http://www.w3.org/2000/svg"
 width="309.000000pt" height="300.000000pt" viewBox="0 0 309.000000 300.000000"
 preserveAspectRatio="xMidYMid meet">

<g transform="translate(0.000000,300.000000) scale(0.100000,-0.100000)"
fill="#000000" stroke="none">
<path d="M0 1500 l0 -1500 1545 0 1545 0 0 1500 0 1500 -1545 0 -1545 0 0
-1500z m1511 -100 l177 -495 41 -3 c38 -3 41 -5 41 -33 l0 -29 -240 0 -240 0
0 30 c0 28 3 30 35 30 19 0 35 3 35 8 0 4 -14 60 -32 125 l-33 117 -126 0
-127 0 -6 -26 c-8 -29 -46 -214 -46 -220 0 -2 18 -4 40 -4 38 0 40 -2 40 -30
l0 -30 -180 0 -180 0 0 30 c0 28 3 30 38 30 l37 0 170 476 c94 262 173 481
177 487 6 10 155 36 187 33 9 -1 76 -173 192 -496z m719 455 c0 -22 -4 -25
-40 -25 l-40 0 0 -465 0 -465 40 0 c38 0 40 -2 40 -30 l0 -30 -210 0 -210 0 0
30 c0 28 3 30 35 30 l35 0 0 465 0 465 -35 0 c-31 0 -35 3 -35 25 l0 25 210 0
210 0 0 -25z"/>
<path d="M1099 1439 l-46 -229 112 0 112 0 -64 227 c-35 125 -65 229 -66 230
-2 1 -23 -101 -48 -228z"/>
</g>
</svg>
